# xmcd
#
# Track frame offsets: 
#        150
#        12616
#        26958
#        39637
#        48073
#        60337
#        73402
#        84908
#        97911
#        109603
#        124161
#        136526
#        147583
#        159318
#        174212
#        183679
#        198807
#        208602
#        222895
#        235217
#        247909
#        260569
#        273161
#        285522
#
# Disc length: 3921 seconds
#
# Revision: 1
# Processed by: cddbd v1.5.1PL0 Copyright (c) Steve Scherf et al.
# Submitted via: ExactAudioCopy v0.95a5
#
DISCID=500f4f18
DTITLE=Ernest Tubb - The Last Sessions
DYEAR=1997
DGENRE=Country
TTITLE0=The Woman Makes A Fool Out Of Me
TTITLE1=It's Been So Long Darling
TTITLE2=One More Day
TTITLE3=I Ain't Been Right Since You Went Wrong
TTITLE4=Sad Songs And Waltzes
TTITLE5=Driftwood On The River
TTITLE6=I'm Gonna Make My Home A Million Miles From Here
TTITLE7=I'll Always Be Glad To Take You Back
TTITLE8=Letters Have No Arms
TTITLE9=Give Me An Old Fashioned Love
TTITLE10=Try Me One More Time
TTITLE11=I'll Step Aside
TTITLE12=Don't Just Stand There
TTITLE13=I wonder Why You Said Goodbye
TTITLE14=Have You Ever Been Lonely
TTITLE15=I'm With A Crowd But So Alone
TTITLE16=Mr. Jukebox
TTITLE17=Tomorrow Never Comes
TTITLE18=There's A Little Bit Of Everything In Texas
TTITLE19=Sweet Thang w/Melba Montgomery
TTITLE20=Dear Judge
TTITLE21=Drivin' Nails In My Coffin
TTITLE22=Yesterday's Winner Is A Loser Today
TTITLE23=That Wild And Wicken Look In Your Eye
EXTD=YEAR: 1997 ID3G: 2
EXTT0=
EXTT1=
EXTT2=
EXTT3=
EXTT4=
EXTT5=
EXTT6=
EXTT7=
EXTT8=
EXTT9=
EXTT10=
EXTT11=
EXTT12=
EXTT13=
EXTT14=
EXTT15=
EXTT16=
EXTT17=
EXTT18=
EXTT19=
EXTT20=
EXTT21=
EXTT22=
EXTT23=
PLAYORDER=
